<svg xmlns="http://www.w3.org/2000/svg" width="111" height="84.84" viewBox="0 0 111 84.84">
  <defs>
    <style>
      .cls-1, .cls-2 {
        fill: #dde9f8;
      }

      .cls-2 {
        font-size: 20px;
        font-family: Montserrat-Light, Montserrat;
        font-weight: 300;
      }
    </style>
  </defs>
  <g id="logo_2" transform="translate(-243 -230.16)">
    <g id="white" transform="translate(41.091 -8)">
      <path id="Union_1" data-name="Union 1" class="cls-1" d="M21.4,56.433a1.656,1.656,0,0,1-1.665-1.086L.566,2.689A1.656,1.656,0,0,1,3.679,1.556L21.4,50.237,30.619,24.9a1.656,1.656,0,1,1,3.113,1.133L23.063,55.346a1.658,1.658,0,0,1-1.557,1.09Q21.452,56.436,21.4,56.433Zm36.946-2.052L40.956,6.608l-3.9,10.7a1.656,1.656,0,0,1-3.113-1.133L39.27,1.556A1.656,1.656,0,0,1,41.146.5a1.759,1.759,0,0,1,1.746,1.154L61.646,53.178a1.758,1.758,0,1,1-3.3,1.2Z" transform="translate(226.443 237.694)"/>
    </g>
    <text id="ANALYTICS" class="cls-2" transform="translate(243 310)"><tspan x="0" y="0">ANALYTICS</tspan></text>
  </g>
</svg>
